HIERARCHY
ROOT Hips
{
  OFFSET 0 0 0
  CHANNELS 6 Xposition Yposition Zposition Zrotation Yrotation Xrotation
  JOINT LeftThigh
  {
    OFFSET 8.409438 0 -5.917753
    CHANNELS 3 Zrotation Yrotation Xrotation
    JOINT LeftLeg
    {
      OFFSET 0 0 -42.358652
      CHANNELS 3 Zrotation Yrotation Xrotation
      JOINT LeftFoot
      {
        OFFSET 0 0 -39.357303
        CHANNELS 3 Zrotation Yrotation Xrotation
      }
    }
  }
  JOINT RightThigh
  {
    OFFSET -8.409438 0 -5.917753
    CHANNELS 3 Zrotation Yrotation Xrotation
    JOINT RightLeg
    {
      OFFSET 0 0 -42.358652
      CHANNELS 3 Zrotation Yrotation Xrotation
      JOINT RightFoot
      {
        OFFSET 0 0 -39.357303
        CHANNELS 3 Zrotation Yrotation Xrotation
      }
    }
  }
  JOINT SpineLow
  {
    OFFSET 0 0 4.719101
    CHANNELS 3 Zrotation Yrotation Xrotation
    JOINT SpineMid
    {
      OFFSET 0 0 12.899191
      CHANNELS 3 Zrotation Yrotation Xrotation
      JOINT Chest
      {
        OFFSET 0 0 12.899191
        CHANNELS 3 Zrotation Yrotation Xrotation
        JOINT LeftShoulder
        {
          OFFSET 7.550562 1.41573 9.438202
          CHANNELS 3 Zrotation Yrotation Xrotation
          JOINT LeftArm
          {
            OFFSET 9.155056 0 4.247191
            CHANNELS 3 Zrotation Yrotation Xrotation
            JOINT LeftForearm
            {
              OFFSET 0 0 25.771955
              CHANNELS 3 Zrotation Yrotation Xrotation
              JOINT LeftHand
              {
                OFFSET 0 0 25.197169
                CHANNELS 3 Zrotation Yrotation Xrotation
              }
            }
          }
        }
        JOINT RightShoulder
        {
          OFFSET -7.550562 1.41573 9.438202
          CHANNELS 3 Zrotation Yrotation Xrotation
          JOINT RightArm
          {
            OFFSET -9.155056 0 4.247191
            CHANNELS 3 Zrotation Yrotation Xrotation
            JOINT RightForearm
            {
              OFFSET 0 0 -25.771955
              CHANNELS 3 Zrotation Yrotation Xrotation
              JOINT RightHand
              {
                OFFSET 0 0 -25.197169
                CHANNELS 3 Zrotation Yrotation Xrotation
              }
            }
          }
        }
        JOINT Neck
        {
          OFFSET 0 0 15.101124
          CHANNELS 3 Zrotation Yrotation Xrotation
          JOINT Head
          {
            OFFSET 0 0 11.325843
            CHANNELS 3 Zrotation Yrotation Xrotation
            End Site
            {
              OFFSET 0 0 14.157303
            }
          }
        }
      }
    }
  }
}
MOTION
Frames: 7
Frame Time: 0.0
0.0  93.25843  0.0  -0.776008  -1.621098  -94.200213  11.679347  -15.535929  -0.143272  -5.5037  -0.545126  10.254093  8.958676  1.080431  4.0657  -14.549994  3.583119  -8.491109  -5.009561  10.351595  15.170932  5.481102  2.079499  -0.191416  1.591973  0.904072  -0.393928  4.338533  2.495821  -1.017155  4.338533  2.495821  -1.017154  -32.718838  16.978793  23.014879  -147.907781  32.75853  -90.474281  -19.853634  22.956151  87.358324  72.881203  -8.444702  9.353492  1.937292  -24.27471  25.995685  127.911461  66.789048  63.271575  -23.666344  -32.590254  -113.805963  55.828568  -3.302413  -4.152206  -7.573901  -2.79527  8.590228  -5.64131  -2.203815  6.407905  
0.0  93.25843  0.0  -0.716885  -3.033112  -94.403433  12.331926  -15.55436  0.53754  -4.90881  -0.692288  10.181503  8.824515  1.132857  3.969761  -13.951836  3.613381  -8.373807  -4.615963  10.261079  15.104579  5.472739  2.025237  -0.227473  1.844616  0.936958  -0.421164  5.027945  2.591406  -1.079484  5.027944  2.591406  -1.079484  -33.110349  17.15469  23.375118  -148.669246  31.452491  -91.530074  -21.442694  25.845934  85.497748  73.964325  -9.50452  11.113174  1.660363  -24.524968  26.441567  127.825124  66.448107  62.840533  -22.303989  -33.492827  -113.668379  56.269584  -2.658275  -3.650423  -7.768536  -3.073143  8.779604  -5.782242  -2.417493  6.545293  
0.0  93.25843  0.0  -0.624501  -4.25861  -94.548391  12.630354  -15.495243  1.089578  -4.340377  -0.825056  10.028546  8.855008  1.182633  4.002631  -13.606937  3.674233  -8.344539  -4.362948  10.19457  14.975766  5.521115  1.989816  -0.235557  2.023514  0.951145  -0.436681  5.516372  2.63421  -1.113628  5.516372  2.63421  -1.113628  -33.025584  17.441968  23.620391  -149.466783  30.221127  -92.283708  -22.526799  28.398554  84.394586  74.941313  -9.994064  12.404386  1.61443  -24.489306  26.72462  127.23041  65.93818  61.880362  -22.153194  -33.753606  -113.267472  55.82187  -2.696698  -3.837465  -7.765794  -3.220737  8.874283  -5.777454  -2.52941  6.614274  
0.0  93.25843  0.0  -0.585365  -5.397067  -94.641191  13.138316  -15.533805  1.702247  -3.895176  -0.956853  9.756014  8.767506  1.241754  3.971258  -13.391993  3.665606  -8.370372  -4.065691  10.130861  14.87175  5.485431  1.945192  -0.262635  2.178534  0.948755  -0.441608  5.940131  2.630588  -1.121057  5.940131  2.630588  -1.121057  -33.104142  17.657509  23.733109  -150.024522  28.96444  -92.87214  -23.24743  29.636129  83.729353  75.054892  -10.175203  13.149544  1.874435  -24.463865  27.012054  126.202245  65.625293  60.852476  -21.500903  -33.944766  -113.088294  55.713032  -2.490305  -3.872299  -7.725194  -3.373581  8.861472  -5.744695  -2.64333  6.602759  
0.0  93.25843  0.0  -0.448518  -6.636323  -94.804543  13.456927  -15.445474  2.231527  -3.315934  -1.066982  9.63842  8.771534  1.300039  4.000756  -13.036526  3.766976  -8.350553  -3.808582  10.079842  14.755031  5.496018  1.917516  -0.269748  2.333581  0.953457  -0.439183  6.364175  2.645663  -1.107744  6.364174  2.645663  -1.107743  -32.905157  17.835543  23.938603  -150.503688  28.059049  -93.282531  -23.522157  29.79775  83.586195  74.492186  -10.27131  12.933006  1.97237  -24.308093  27.316005  124.877587  65.41051  59.424854  -21.156367  -33.843955  -112.924995  55.430459  -2.571454  -4.023239  -7.602011  -3.45565  8.84984  -5.651099  -2.702957  6.593559  
0.0  93.25843  0.0  -0.35353  -7.844958  -94.954217  14.197581  -15.513827  2.900314  -2.99442  -1.125022  9.379505  8.735404  1.346578  4.010736  -12.798457  3.803752  -8.369414  -3.531389  10.001112  14.662498  5.454273  1.908327  -0.300069  2.46508  0.961132  -0.428157  6.724143  2.667561  -1.071523  6.724143  2.667561  -1.071522  -32.599034  17.752843  23.92927  -150.979459  27.509731  -93.799968  -23.671892  29.737296  83.81366  73.941604  -10.360965  11.93083  2.201972  -24.233252  27.626262  123.421877  65.415052  57.989058  -20.961763  -33.525891  -112.599222  55.157856  -2.607725  -4.381676  -7.463478  -3.588467  8.763986  -5.545619  -2.799521  6.528134  
0.0  93.25843  0.0  -0.239861  -8.98687  -95.131003  14.475436  -15.500368  3.347749  -2.555295  -1.149363  9.312389  8.777405  1.396333  4.041164  -12.517082  3.876653  -8.32372  -3.236115  9.972576  14.551457  5.444292  1.87602  -0.295299  2.603308  0.958717  -0.396674  7.103459  2.659674  -0.98015  7.103459  2.659674  -0.98015  -32.472263  17.542627  23.709723  -151.306816  26.89437  -94.335372  -23.530466  29.730451  84.246918  73.316175  -10.390851  10.580145  2.257864  -24.087364  27.872032  121.959392  65.528065  56.60146  -20.463643  -33.265988  -112.499513  55.27383  -2.599572  -4.690785  -7.322496  -3.621144  8.642251  -5.440073  -2.82052  6.437199  
